<svg xmlns="http://www.w3.org/2000/svg" xmlns:xlink="http://www.w3.org/1999/xlink" contentStyleType="text/css" data-diagram-type="DESCRIPTION" height="1189.8px" preserveAspectRatio="none" style="width:817px;height:1189px;background:#FFFFFF;" version="1.1" viewBox="0 0 817 1189" width="817.2px" zoomAndPan="magnify"><defs/><g><!--entity AuthUser--><g class="entity" data-entity="AuthUser" data-source-line="4" data-uid="ent0002" id="entity_AuthUser"><ellipse cx="69.2249" cy="256.05" fill="#F1F1F1" rx="7.2" ry="7.2" style="stroke:#181818;stroke-width:0.45;"/><path d="M69.2249,263.25 L69.2249,287.55 M57.5249,270.45 L80.9249,270.45 M69.2249,287.55 L57.5249,301.05 M69.2249,287.55 L80.9249,301.05" fill="none" style="stroke:#181818;stroke-width:0.45;"/><text fill="#000000" font-family="sans-serif" font-size="12.6" lengthAdjust="spacing" textLength="111.4497" x="13.5" y="314.0956">&#1040;&#1074;&#1090;&#1086;&#1088;&#1080;&#1079;&#1086;&#1074;&#1072;&#1085;&#1085;&#1099;&#1081;</text><text fill="#000000" font-family="sans-serif" font-size="12.6" lengthAdjust="spacing" textLength="91.553" x="13.5" y="328.7628">&#1087;&#1086;&#1083;&#1100;&#1079;&#1086;&#1074;&#1072;&#1090;&#1077;&#1083;&#1100;</text></g><!--entity UnauthUser--><g class="entity" data-entity="UnauthUser" data-source-line="5" data-uid="ent0003" id="entity_UnauthUser"><ellipse cx="69.289" cy="571.05" fill="#F1F1F1" rx="7.2" ry="7.2" style="stroke:#181818;stroke-width:0.45;"/><path d="M69.289,578.25 L69.289,602.55 M57.589,585.45 L80.989,585.45 M69.289,602.55 L57.589,616.05 M69.289,602.55 L80.989,616.05" fill="none" style="stroke:#181818;stroke-width:0.45;"/><text fill="#000000" font-family="sans-serif" font-size="12.6" lengthAdjust="spacing" textLength="127.778" x="5.4" y="629.0956">&#1053;&#1077;&#1072;&#1074;&#1090;&#1086;&#1088;&#1080;&#1079;&#1086;&#1074;&#1072;&#1085;&#1085;&#1099;&#1081;</text><text fill="#000000" font-family="sans-serif" font-size="12.6" lengthAdjust="spacing" textLength="91.553" x="5.4" y="643.7628">&#1087;&#1086;&#1083;&#1100;&#1079;&#1086;&#1074;&#1072;&#1090;&#1077;&#1083;&#1100;</text></g><!--entity Admin--><g class="entity" data-entity="Admin" data-source-line="6" data-uid="ent0004" id="entity_Admin"><ellipse cx="69.3426" cy="881.1" fill="#F1F1F1" rx="7.2" ry="7.2" style="stroke:#181818;stroke-width:0.45;"/><path d="M69.3426,888.3 L69.3426,912.6 M57.6426,895.5 L81.0426,895.5 M69.3426,912.6 L57.6426,926.1 M69.3426,912.6 L81.0426,926.1" fill="none" style="stroke:#181818;stroke-width:0.45;"/><text fill="#000000" font-family="sans-serif" font-size="12.6" lengthAdjust="spacing" textLength="104.4853" x="17.1" y="939.1456">&#1040;&#1076;&#1084;&#1080;&#1085;&#1080;&#1089;&#1090;&#1088;&#1072;&#1090;&#1086;&#1088;</text></g><g class="entity" data-entity="UC_Auth" data-source-line="9" data-uid="ent0005" id="entity_UC_Auth"><ellipse cx="737.2976" cy="625.0895" fill="#F1F1F1" rx="74.8976" ry="17.1395" style="stroke:#181818;stroke-width:0.45;"/><text fill="#000000" font-family="sans-serif" font-size="12.6" lengthAdjust="spacing" textLength="113.5723" x="680.0444" y="627.81">&#1040;&#1091;&#1090;&#1077;&#1085;&#1090;&#1080;&#1092;&#1080;&#1082;&#1072;&#1094;&#1080;&#1103;</text></g><g class="entity" data-entity="UC_Reg" data-source-line="10" data-uid="ent0006" id="entity_UC_Reg"><ellipse cx="385.5493" cy="683.5299" fill="#F1F1F1" rx="63.3493" ry="14.8299" style="stroke:#181818;stroke-width:0.45;"/><text fill="#000000" font-family="sans-serif" font-size="12.6" lengthAdjust="spacing" textLength="84.4901" x="340.6042" y="686.9027">&#1056;&#1077;&#1075;&#1080;&#1089;&#1090;&#1088;&#1072;&#1094;&#1080;&#1103;</text></g><g class="entity" data-entity="UC_Weather" data-source-line="11" data-uid="ent0007" id="entity_UC_Weather"><ellipse cx="385.817" cy="540.6634" fill="#F1F1F1" rx="78.017" ry="17.7634" style="stroke:#181818;stroke-width:0.45;"/><text fill="#000000" font-family="sans-serif" font-size="12.6" lengthAdjust="spacing" textLength="120.7767" x="325.4286" y="543.2254">&#1055;&#1086;&#1075;&#1086;&#1076;&#1085;&#1099;&#1077; &#1076;&#1072;&#1085;&#1085;&#1099;&#1077;</text></g><g class="entity" data-entity="UC_AddFavorite" data-source-line="12" data-uid="ent0008" id="entity_UC_AddFavorite"><ellipse cx="385.4421" cy="255.1984" fill="#F1F1F1" rx="90.6921" ry="20.2984" style="stroke:#181818;stroke-width:0.45;"/><text fill="#000000" font-family="sans-serif" font-size="12.6" lengthAdjust="spacing" textLength="149.1759" x="310.8542" y="257.7604">&#1044;&#1086;&#1073;&#1072;&#1074;&#1080;&#1090;&#1100; &#1074; &#1080;&#1079;&#1073;&#1088;&#1072;&#1085;&#1085;&#1086;&#1077;</text></g><g class="entity" data-entity="UC_ViewFavorites" data-source-line="13" data-uid="ent0009" id="entity_UC_ViewFavorites"><ellipse cx="385.5452" cy="325.419" fill="#F1F1F1" rx="79.5452" ry="18.069" style="stroke:#181818;stroke-width:0.45;"/><text fill="#000000" font-family="sans-serif" font-size="12.6" lengthAdjust="spacing" textLength="124.265" x="323.4127" y="327.981">&#1048;&#1079;&#1073;&#1088;&#1072;&#1085;&#1085;&#1099;&#1077; &#1075;&#1086;&#1088;&#1086;&#1076;&#1072;</text></g><g class="entity" data-entity="UC_ClothingRecommendation" data-source-line="14" data-uid="ent0010" id="entity_UC_ClothingRecommendation"><ellipse cx="385.8256" cy="397.3851" fill="#F1F1F1" rx="101.8756" ry="22.5351" style="stroke:#181818;stroke-width:0.45;"/><text fill="#000000" font-family="sans-serif" font-size="12.6" lengthAdjust="spacing" textLength="173.4961" x="299.0776" y="399.9471">&#1056;&#1077;&#1082;&#1086;&#1084;&#1077;&#1085;&#1076;&#1072;&#1094;&#1080;&#1080; &#1087;&#1086; &#1086;&#1076;&#1077;&#1078;&#1076;&#1077;</text></g><g class="entity" data-entity="UC_AddToCalendar" data-source-line="15" data-uid="ent0011" id="entity_UC_AddToCalendar"><ellipse cx="385.4945" cy="471.2089" fill="#F1F1F1" rx="88.4945" ry="19.8589" style="stroke:#181818;stroke-width:0.45;"/><text fill="#000000" font-family="sans-serif" font-size="12.6" lengthAdjust="spacing" textLength="144.3278" x="313.3306" y="473.7709">&#1057;&#1086;&#1073;&#1099;&#1090;&#1080;&#1103; &#1074; &#1082;&#1072;&#1083;&#1077;&#1085;&#1076;&#1072;&#1088;&#1077;</text></g><g class="entity" data-entity="UC_SearchFavorites" data-source-line="16" data-uid="ent0012" id="entity_UC_SearchFavorites"><ellipse cx="385.5829" cy="23.7466" fill="#F1F1F1" rx="80.9329" ry="18.3466" style="stroke:#181818;stroke-width:0.45;"/><text fill="#000000" font-family="sans-serif" font-size="12.6" lengthAdjust="spacing" textLength="127.415" x="321.8754" y="26.3086">&#1055;&#1086;&#1080;&#1089;&#1082; &#1074; &#1080;&#1079;&#1073;&#1088;&#1072;&#1085;&#1085;&#1086;&#1084;</text></g><g class="entity" data-entity="UC_EventWeather" data-source-line="17" data-uid="ent0013" id="entity_UC_EventWeather"><ellipse cx="385.6427" cy="92.1585" fill="#F1F1F1" rx="80.9927" ry="18.3585" style="stroke:#181818;stroke-width:0.45;"/><text fill="#000000" font-family="sans-serif" font-size="12.6" lengthAdjust="spacing" textLength="127.5504" x="321.8675" y="94.7206">&#1055;&#1086;&#1075;&#1086;&#1076;&#1072; &#1085;&#1072; &#1089;&#1086;&#1073;&#1099;&#1090;&#1080;&#1077;</text></g><g class="entity" data-entity="UC_BlockUser" data-source-line="19" data-uid="ent0014" id="entity_UC_BlockUser"><ellipse cx="385.7873" cy="1162.4675" fill="#F1F1F1" rx="102.2873" ry="22.6175" style="stroke:#181818;stroke-width:0.45;"/><text fill="#000000" font-family="sans-serif" font-size="12.6" lengthAdjust="spacing" textLength="174.382" x="298.5963" y="1165.0295">&#1041;&#1083;&#1086;&#1082;&#1080;&#1088;&#1086;&#1074;&#1082;&#1072; &#1087;&#1086;&#1083;&#1100;&#1079;&#1086;&#1074;&#1072;&#1090;&#1077;&#1083;&#1103;</text></g><g class="entity" data-entity="UC_LimitRequests" data-source-line="20" data-uid="ent0015" id="entity_UC_LimitRequests"><ellipse cx="385.8394" cy="746.4979" fill="#F1F1F1" rx="72.1894" ry="16.5979" style="stroke:#181818;stroke-width:0.45;"/><text fill="#000000" font-family="sans-serif" font-size="12.6" lengthAdjust="spacing" textLength="107.1308" x="330.8456" y="749.5193">&#1051;&#1080;&#1084;&#1080;&#1090; &#1079;&#1072;&#1087;&#1088;&#1086;&#1089;&#1086;&#1074;</text></g><g class="entity" data-entity="UC_ChangeRole" data-source-line="21" data-uid="ent0016" id="entity_UC_ChangeRole"><ellipse cx="385.874" cy="809.5048" fill="#F1F1F1" rx="60.974" ry="14.3548" style="stroke:#181818;stroke-width:0.45;"/><text fill="#000000" font-family="sans-serif" font-size="12.6" lengthAdjust="spacing" textLength="77.9687" x="344.1897" y="812.8776">&#1057;&#1084;&#1077;&#1085;&#1072; &#1088;&#1086;&#1083;&#1080;</text></g><g class="entity" data-entity="UC_MassDelete" data-source-line="22" data-uid="ent0017" id="entity_UC_MassDelete"><ellipse cx="385.786" cy="874.5572" fill="#F1F1F1" rx="82.486" ry="18.6572" style="stroke:#181818;stroke-width:0.45;"/><text fill="#000000" font-family="sans-serif" font-size="12.6" lengthAdjust="spacing" textLength="130.9219" x="320.3251" y="877.1192">&#1052;&#1072;&#1089;&#1089;&#1086;&#1074;&#1086;&#1077; &#1091;&#1076;&#1072;&#1083;&#1077;&#1085;&#1080;&#1077;</text></g><g class="entity" data-entity="UC_ListAdmins" data-source-line="23" data-uid="ent0018" id="entity_UC_ListAdmins"><ellipse cx="385.7063" cy="941.0513" fill="#F1F1F1" rx="72.9563" ry="16.7513" style="stroke:#181818;stroke-width:0.45;"/><text fill="#000000" font-family="sans-serif" font-size="12.6" lengthAdjust="spacing" textLength="108.9765" x="330.0727" y="943.9874">&#1057;&#1087;&#1080;&#1089;&#1086;&#1082; &#1072;&#1076;&#1084;&#1080;&#1085;&#1086;&#1074;</text></g><g class="entity" data-entity="UC_ChangeAdminPass" data-source-line="24" data-uid="ent0019" id="entity_UC_ChangeAdminPass"><ellipse cx="385.5403" cy="1009.2381" fill="#F1F1F1" rx="89.8903" ry="20.1381" style="stroke:#181818;stroke-width:0.45;"/><text fill="#000000" font-family="sans-serif" font-size="12.6" lengthAdjust="spacing" textLength="147.4102" x="311.8352" y="1011.8001">&#1057;&#1084;&#1077;&#1085;&#1072; &#1087;&#1072;&#1088;&#1086;&#1083;&#1103; &#1072;&#1076;&#1084;&#1080;&#1085;&#1072;</text></g><!--link AuthUser to UC_Weather--><g class="link" data-entity-1="AuthUser" data-entity-2="UC_Weather" data-source-line="28" data-uid="lnk20" id="link_AuthUser_UC_Weather"><path d="M83.988,332.46 C97.965,369.378 122.895,422.217 160.2,455.85 C205.92,497.061 268.3954,517.6977 317.5084,528.7767" fill="none" id="AuthUser-to-UC_Weather" style="stroke:#181818;stroke-width:0.9;"/><polygon fill="#181818" points="322.776,529.965,315.6667,524.6708,318.3863,528.9748,314.0824,531.6943,322.776,529.965" style="stroke:#181818;stroke-width:0.9;"/><text fill="#000000" font-family="sans-serif" font-size="11.7" lengthAdjust="spacing" textLength="67.1208" x="175.05" y="452.3102">&#1074;&#1099;&#1087;&#1086;&#1083;&#1085;&#1103;&#1077;&#1090;</text></g><!--link AuthUser to UC_AddFavorite--><g class="link" data-entity-1="AuthUser" data-entity-2="UC_AddFavorite" data-source-line="29" data-uid="lnk21" id="link_AuthUser_UC_AddFavorite"><path d="M125.352,284.094 C174.771,278.577 242.5293,271.0222 298.5543,264.7672" fill="none" id="AuthUser-to-UC_AddFavorite" style="stroke:#181818;stroke-width:0.9;"/><polygon fill="#181818" points="303.921,264.168,295.4716,261.489,299.4488,264.6673,296.2705,268.6445,303.921,264.168" style="stroke:#181818;stroke-width:0.9;"/><text fill="#000000" font-family="sans-serif" font-size="11.7" lengthAdjust="spacing" textLength="67.1208" x="175.05" y="266.0102">&#1074;&#1099;&#1087;&#1086;&#1083;&#1085;&#1103;&#1077;&#1090;</text></g><!--link AuthUser to UC_ViewFavorites--><g class="link" data-entity-1="AuthUser" data-entity-2="UC_ViewFavorites" data-source-line="30" data-uid="lnk22" id="link_AuthUser_UC_ViewFavorites"><path d="M125.145,297.621 C136.719,299.106 148.851,300.618 160.2,301.95 C211.005,307.899 262.989,313.3267 307.017,317.7457" fill="none" id="AuthUser-to-UC_ViewFavorites" style="stroke:#181818;stroke-width:0.9;"/><polygon fill="#181818" points="312.39,318.285,304.69,313.8941,307.9125,317.8356,303.971,321.0581,312.39,318.285" style="stroke:#181818;stroke-width:0.9;"/><text fill="#000000" font-family="sans-serif" font-size="11.7" lengthAdjust="spacing" textLength="67.1208" x="175.05" y="298.4102">&#1074;&#1099;&#1087;&#1086;&#1083;&#1085;&#1103;&#1077;&#1090;</text></g><!--link AuthUser to UC_ClothingRecommendation--><g class="link" data-entity-1="AuthUser" data-entity-2="UC_ClothingRecommendation" data-source-line="31" data-uid="lnk23" id="link_AuthUser_UC_ClothingRecommendation"><path d="M125.19,319.158 C136.593,324.594 148.662,329.949 160.2,334.35 C210.798,353.655 264.5807,368.6825 309.4097,379.8695" fill="none" id="AuthUser-to-UC_ClothingRecommendation" style="stroke:#181818;stroke-width:0.9;"/><polygon fill="#181818" points="314.649,381.177,307.6617,375.7229,310.2829,380.0874,305.9184,382.7087,314.649,381.177" style="stroke:#181818;stroke-width:0.9;"/><text fill="#000000" font-family="sans-serif" font-size="11.7" lengthAdjust="spacing" textLength="67.1208" x="175.05" y="330.8102">&#1074;&#1099;&#1087;&#1086;&#1083;&#1085;&#1103;&#1077;&#1090;</text></g><!--link AuthUser to UC_AddToCalendar--><g class="link" data-entity-1="AuthUser" data-entity-2="UC_AddToCalendar" data-source-line="32" data-uid="lnk24" id="link_AuthUser_UC_AddToCalendar"><path d="M102.276,332.181 C118.125,350.739 138.492,371.682 160.2,386.55 C210.465,420.975 271.3835,442.242 318.8405,455.373" fill="none" id="AuthUser-to-UC_AddToCalendar" style="stroke:#181818;stroke-width:0.9;"/><polygon fill="#181818" points="324.045,456.813,317.1983,451.1833,319.708,455.613,315.2783,458.1226,324.045,456.813" style="stroke:#181818;stroke-width:0.9;"/><text fill="#000000" font-family="sans-serif" font-size="11.7" lengthAdjust="spacing" textLength="67.1208" x="175.05" y="383.0102">&#1074;&#1099;&#1087;&#1086;&#1083;&#1085;&#1103;&#1077;&#1090;</text></g><!--link AuthUser to UC_SearchFavorites--><g class="link" data-entity-1="AuthUser" data-entity-2="UC_SearchFavorites" data-source-line="33" data-uid="lnk25" id="link_AuthUser_UC_SearchFavorites"><path d="M77.526,248.058 C87.84,201.429 111.159,127.359 160.2,85.05 C200.817,50.013 254.3359,35.5893 301.6129,29.1183" fill="none" id="AuthUser-to-UC_SearchFavorites" style="stroke:#181818;stroke-width:0.9;"/><polygon fill="#181818" points="306.963,28.386,298.4496,25.9177,302.5046,28.9962,299.426,33.0512,306.963,28.386" style="stroke:#181818;stroke-width:0.9;"/><text fill="#000000" font-family="sans-serif" font-size="11.7" lengthAdjust="spacing" textLength="67.1208" x="175.05" y="35.6102">&#1074;&#1099;&#1087;&#1086;&#1083;&#1085;&#1103;&#1077;&#1090;</text></g><!--link AuthUser to UC_EventWeather--><g class="link" data-entity-1="AuthUser" data-entity-2="UC_EventWeather" data-source-line="34" data-uid="lnk26" id="link_AuthUser_UC_EventWeather"><path d="M86.463,248.202 C101.034,216.045 125.487,173.097 160.2,148.05 C202.959,117.198 255.5399,104.0376 301.8539,97.8276" fill="none" id="AuthUser-to-UC_EventWeather" style="stroke:#181818;stroke-width:0.9;"/><polygon fill="#181818" points="307.206,97.11,298.6994,94.6184,302.7459,97.708,299.6563,101.7545,307.206,97.11" style="stroke:#181818;stroke-width:0.9;"/><text fill="#000000" font-family="sans-serif" font-size="11.7" lengthAdjust="spacing" textLength="67.1208" x="175.05" y="104.0102">&#1074;&#1099;&#1087;&#1086;&#1083;&#1085;&#1103;&#1077;&#1090;</text></g><!--reverse link AuthUser to UC_Auth--><g class="link" data-entity-1="AuthUser" data-entity-2="UC_Auth" data-source-line="35" data-uid="lnk27" id="link_AuthUser_UC_Auth"><path d="M130.2648,257.032 C214.0548,214.831 371.034,153.711 487.8,219.15 C645.633,307.602 715.212,541.764 732.024,607.608" fill="none" id="AuthUser-backto-UC_Auth" style="stroke:#181818;stroke-width:0.9;stroke-dasharray:7.0,7.0;"/><polygon fill="#181818" points="125.442,259.461,134.2956,259.0327,129.461,257.4368,131.0569,252.6022,125.442,259.461" style="stroke:#181818;stroke-width:0.9;"/><text fill="#000000" font-family="sans-serif" font-size="11.7" lengthAdjust="spacing" textLength="49.5936" x="361.2489" y="173.3102">&#1090;&#1088;&#1077;&#1073;&#1091;&#1077;&#1090;</text><text fill="#000000" font-family="sans-serif" font-size="11.7" lengthAdjust="spacing" textLength="105.1915" x="333.45" y="186.9297">&#1072;&#1091;&#1090;&#1077;&#1085;&#1090;&#1080;&#1092;&#1080;&#1082;&#1072;&#1094;&#1080;&#1080;</text></g><!--link UnauthUser to UC_Weather--><g class="link" data-entity-1="UnauthUser" data-entity-2="UC_Weather" data-source-line="37" data-uid="lnk28" id="link_UnauthUser_UC_Weather"><path d="M133.479,592.218 C190.26,580.518 267.564,564.5882 322.365,553.3022" fill="none" id="UnauthUser-to-UC_Weather" style="stroke:#181818;stroke-width:0.9;"/><polygon fill="#181818" points="327.654,552.213,318.9943,550.3209,323.2465,553.1207,320.4467,557.3729,327.654,552.213" style="stroke:#181818;stroke-width:0.9;"/><text fill="#000000" font-family="sans-serif" font-size="11.7" lengthAdjust="spacing" textLength="94.5883" x="161.1" y="563.0102">&#1087;&#1088;&#1086;&#1089;&#1084;&#1072;&#1090;&#1088;&#1080;&#1074;&#1072;&#1077;&#1090;</text></g><!--link UnauthUser to UC_Reg--><g class="link" data-entity-1="UnauthUser" data-entity-2="UC_Reg" data-source-line="38" data-uid="lnk29" id="link_UnauthUser_UC_Reg"><path d="M133.434,634.599 C142.308,638.082 151.398,641.322 160.2,643.95 C216.144,660.663 276.8133,670.5671 322.7313,676.5521" fill="none" id="UnauthUser-to-UC_Reg" style="stroke:#181818;stroke-width:0.9;"/><polygon fill="#181818" points="328.086,677.25,320.5192,672.6333,323.6237,676.6684,319.5886,679.7729,328.086,677.25" style="stroke:#181818;stroke-width:0.9;"/><text fill="#000000" font-family="sans-serif" font-size="11.7" lengthAdjust="spacing" textLength="67.1208" x="175.05" y="640.4102">&#1074;&#1099;&#1087;&#1086;&#1083;&#1085;&#1103;&#1077;&#1090;</text></g><!--link UnauthUser to UC_Auth--><g class="link" data-entity-1="UnauthUser" data-entity-2="UC_Auth" data-source-line="39" data-uid="lnk30" id="link_UnauthUser_UC_Auth"><path d="M133.452,607.131 C257.328,610.812 525.8454,618.7964 657.4344,622.7114" fill="none" id="UnauthUser-to-UC_Auth" style="stroke:#181818;stroke-width:0.9;"/><polygon fill="#181818" points="662.832,622.872,654.8426,619.0327,658.334,622.7382,654.6285,626.2295,662.832,622.872" style="stroke:#181818;stroke-width:0.9;"/><text fill="#000000" font-family="sans-serif" font-size="11.7" lengthAdjust="spacing" textLength="67.1208" x="352.35" y="608.0102">&#1074;&#1099;&#1087;&#1086;&#1083;&#1085;&#1103;&#1077;&#1090;</text></g><!--link Admin to UC_BlockUser--><g class="link" data-entity-1="Admin" data-entity-2="UC_BlockUser" data-source-line="41" data-uid="lnk31" id="link_Admin_UC_BlockUser"><path d="M75.132,941.868 C83.745,988.551 106.083,1071.441 160.2,1115.55 C194.544,1143.54 236.0836,1155.3804 278.1406,1160.5644" fill="none" id="Admin-to-UC_BlockUser" style="stroke:#181818;stroke-width:0.9;"/><polygon fill="#181818" points="283.5,1161.225,275.9012,1156.6611,279.0338,1160.6745,275.0204,1163.807,283.5,1161.225" style="stroke:#181818;stroke-width:0.9;"/><text fill="#000000" font-family="sans-serif" font-size="11.7" lengthAdjust="spacing" textLength="64.5957" x="176.4" y="1112.0102">&#1091;&#1087;&#1088;&#1072;&#1074;&#1083;&#1103;&#1077;&#1090;</text></g><!--link Admin to UC_LimitRequests--><g class="link" data-entity-1="Admin" data-entity-2="UC_LimitRequests" data-source-line="42" data-uid="lnk32" id="link_Admin_UC_LimitRequests"><path d="M96.057,873.423 C112.491,853.812 135.306,830.142 160.2,814.95 C211.689,783.531 273.4005,766.6431 320.7675,757.0941" fill="none" id="Admin-to-UC_LimitRequests" style="stroke:#181818;stroke-width:0.9;"/><polygon fill="#181818" points="326.061,756.027,317.4093,754.0987,321.6497,756.9163,318.8322,761.1567,326.061,756.027" style="stroke:#181818;stroke-width:0.9;"/><text fill="#000000" font-family="sans-serif" font-size="11.7" lengthAdjust="spacing" textLength="78.3466" x="169.2" y="770.0102">&#1085;&#1072;&#1089;&#1090;&#1088;&#1072;&#1080;&#1074;&#1072;&#1077;&#1090;</text></g><!--link Admin to UC_ChangeRole--><g class="link" data-entity-1="Admin" data-entity-2="UC_ChangeRole" data-source-line="43" data-uid="lnk33" id="link_Admin_UC_ChangeRole"><path d="M121.581,881.388 C134.028,875.619 147.429,869.886 160.2,865.35 C220.005,844.101 286.227,828.8948 332.226,819.5528" fill="none" id="Admin-to-UC_ChangeRole" style="stroke:#181818;stroke-width:0.9;"/><polygon fill="#181818" points="337.518,818.478,328.8635,816.5622,333.108,819.3736,330.2966,823.6181,337.518,818.478" style="stroke:#181818;stroke-width:0.9;"/><text fill="#000000" font-family="sans-serif" font-size="11.7" lengthAdjust="spacing" textLength="58.5514" x="179.1" y="833.9102">&#1080;&#1079;&#1084;&#1077;&#1085;&#1103;&#1077;&#1090;</text></g><!--link Admin to UC_MassDelete--><g class="link" data-entity-1="Admin" data-entity-2="UC_MassDelete" data-source-line="44" data-uid="lnk34" id="link_Admin_UC_MassDelete"><path d="M121.788,902.187 C173.205,896.742 247.296,888.9048 305.418,882.7488" fill="none" id="Admin-to-UC_MassDelete" style="stroke:#181818;stroke-width:0.9;"/><polygon fill="#181818" points="310.788,882.18,302.3539,879.4532,306.313,882.654,303.1122,886.6131,310.788,882.18" style="stroke:#181818;stroke-width:0.9;"/><text fill="#000000" font-family="sans-serif" font-size="11.7" lengthAdjust="spacing" textLength="67.1208" x="175.05" y="884.3102">&#1074;&#1099;&#1087;&#1086;&#1083;&#1085;&#1103;&#1077;&#1090;</text></g><!--link Admin to UC_ListAdmins--><g class="link" data-entity-1="Admin" data-entity-2="UC_ListAdmins" data-source-line="45" data-uid="lnk35" id="link_Admin_UC_ListAdmins"><path d="M121.545,915.264 C134.172,917.019 147.663,918.792 160.2,920.25 C212.607,926.334 266.6712,931.2876 311.2302,935.0586" fill="none" id="Admin-to-UC_ListAdmins" style="stroke:#181818;stroke-width:0.9;"/><polygon fill="#181818" points="316.611,935.514,308.8434,931.2438,312.127,935.1345,308.2363,938.4181,316.611,935.514" style="stroke:#181818;stroke-width:0.9;"/><text fill="#000000" font-family="sans-serif" font-size="11.7" lengthAdjust="spacing" textLength="94.5883" x="161.1" y="916.7102">&#1087;&#1088;&#1086;&#1089;&#1084;&#1072;&#1090;&#1088;&#1080;&#1074;&#1072;&#1077;&#1090;</text></g><!--link Admin to UC_ChangeAdminPass--><g class="link" data-entity-1="Admin" data-entity-2="UC_ChangeAdminPass" data-source-line="46" data-uid="lnk36" id="link_Admin_UC_ChangeAdminPass"><path d="M121.518,935.037 C133.965,941.049 147.384,947.025 160.2,951.75 C211.932,970.83 267.3274,984.8245 312.5614,994.7875" fill="none" id="Admin-to-UC_ChangeAdminPass" style="stroke:#181818;stroke-width:0.9;"/><polygon fill="#181818" points="317.835,995.949,310.699,990.691,313.4403,994.9811,309.1502,997.7224,317.835,995.949" style="stroke:#181818;stroke-width:0.9;"/><text fill="#000000" font-family="sans-serif" font-size="11.7" lengthAdjust="spacing" textLength="58.5514" x="179.1" y="948.2102">&#1080;&#1079;&#1084;&#1077;&#1085;&#1103;&#1077;&#1090;</text></g><!--link Admin to UC_Auth--><g class="link" data-entity-1="Admin" data-entity-2="UC_Auth" data-source-line="47" data-uid="lnk37" id="link_Admin_UC_Auth"><path d="M106.155,941.985 C122.139,956.529 141.543,973.233 160.2,986.85 C280.755,1074.843 358.749,1135.62 487.8,1060.65 C653.787,964.224 716.9886,716.0194 731.6406,647.5744" fill="none" id="Admin-to-UC_Auth" style="stroke:#181818;stroke-width:0.9;"/><polygon fill="#181818" points="732.771,642.294,727.5552,649.461,731.829,646.6943,734.5957,650.9681,732.771,642.294" style="stroke:#181818;stroke-width:0.9;"/><text fill="#000000" font-family="sans-serif" font-size="11.7" lengthAdjust="spacing" textLength="64.5957" x="353.7" y="1057.1102">&#1091;&#1087;&#1088;&#1072;&#1074;&#1083;&#1103;&#1077;&#1090;</text></g><!--link Admin to UC_Reg--><g class="link" data-entity-1="Admin" data-entity-2="UC_Reg" data-source-line="48" data-uid="lnk38" id="link_Admin_UC_Reg"><path d="M81.351,873.243 C94.617,837.612 120.159,782.811 160.2,751.05 C208.278,712.917 272.2541,697.0748 321.1331,689.8478" fill="none" id="Admin-to-UC_Reg" style="stroke:#181818;stroke-width:0.9;"/><polygon fill="#181818" points="326.475,689.058,317.9356,686.6815,322.0234,689.7162,318.9887,693.804,326.475,689.058" style="stroke:#181818;stroke-width:0.9;"/><text fill="#000000" font-family="sans-serif" font-size="11.7" lengthAdjust="spacing" textLength="64.5957" x="176.4" y="701.6102">&#1091;&#1087;&#1088;&#1072;&#1074;&#1083;&#1103;&#1077;&#1090;</text></g><!--link UC_Reg to UC_Auth--><g class="link" data-entity-1="UC_Reg" data-entity-2="UC_Auth" data-source-line="50" data-uid="lnk39" id="link_UC_Reg_UC_Auth"><path d="M439.29,675.585 C489.708,667.872 567.837,655.659 635.4,643.95 C649.701,641.475 659.8013,639.6524 674.1653,636.9614" fill="none" id="UC_Reg-to-UC_Auth" style="stroke:#181818;stroke-width:0.9;"/><polygon fill="#181818" points="679.473,635.967,670.8486,633.9201,675.0499,636.7956,672.1744,640.997,679.473,635.967" style="stroke:#181818;stroke-width:0.9;"/><text fill="#000000" font-family="sans-serif" font-size="11.7" lengthAdjust="spacing" textLength="119.0281" x="515.7" y="640.4102">&#1087;&#1086;&#1089;&#1083;&#1077; &#1088;&#1077;&#1075;&#1080;&#1089;&#1090;&#1088;&#1072;&#1094;&#1080;&#1080;</text></g><!--SRC=[dLNBZX9H4DttLzpCHbtCnAt6c8oeAqqCEhenCHsuGaVeZjrtnYq3nirC0YOkJ7pE7_GqWxOyVw7k7rbLpUq7D49SG80-vzIf9otvMWdb2TzfD9MeExwiASTphQ1cjwIuUN3BikoQydon1mE8T1VckWCn_8OvH13236Rw3FwyT661lqpqkNc2o15ztnDs80wFLVCea7ugzGqVXlyjT-JQgu83k88f2iqWrgUwYw9X8fx4hxSTrx8i8Qx3GFTOR8RliNwFd35YF-3d_WqMhxmYkupzYRXXJh60gie6WtwWmo6-hjZxIE07ayZ8O5z8MpNHBk4_8VQIiaUnhZuN40ckm2M5828-Juc7zVf3-yJp7IMP_3aFJC8DkOOKFpIivuvyPsX1ciaOGLFAdA2K2yI2wYoOF89Vz6uaAYrFDHstKPKrhzsMRjtciI2j2qf0dt7z-cmVAmYJLBbJiF_Cg-0a8TzFguK5XN5ftbD3V2fjlzOivf0LEXI83WNAf4woc0zEfAkoWZFr8zgReysOAnMHOR5XnDB-tcjvjJSyPAJm1KDCgMC2yI4iI8ZZHmR_o6axgYhV7ij01Sj29UL6fnHs0d5QtQRjDcJLQoLT_OhHJnCrQhxGFHwYfAIvr1xRGN1VjkHo62umXPXfMCqmtO22fq3nyAyQGcQOcA8MPjomw92vJp0gBiyr0Tyn6EilPm-_HhgF1Oaji-9YV_zkRkB5RUmpOhdMoEh3I7VNmBafturG6F3TAEK3lRE_R8ntewmCy6wa_EXkOTmvs3Ud2f5ydqQu2pr2uVaCDrqvR9MLtS-IRfd9dj96y76cmqonrsbu0ijjhaENHakm5W-PmQLRHrdrs0sToed9FuyjR1o9ptYF-5RdV1SusUOHWUuFhqIPVBPj6tfHz68sxTz5B36JBjbMHwRRM-gIjAK4PIqVhlHamLudjD2TzNyyYFy2]--></g></svg>